<?xml version="1.0" standalone="no"?>
<!DOCTYPE svg PUBLIC "-//W3C//DTD SVG 20010904//EN"
 "http://www.w3.org/TR/2001/REC-SVG-20010904/DTD/svg10.dtd">
<svg version="1.0" xmlns="http://www.w3.org/2000/svg"
 width="1000.000000pt" height="1000.000000pt" viewBox="0 0 1000.000000 1000.000000"
 preserveAspectRatio="xMidYMid meet">
<metadata>
Created by potrace 1.14, written by Peter Selinger 2001-2017
</metadata>
<g transform="translate(0.000000,1000.000000) scale(0.100000,-0.100000)"
fill="#000000" stroke="none">
<path d="M4819 9205 c-2 -2 -29 -6 -59 -10 -186 -22 -468 -132 -660 -256 -33
-21 -63 -39 -66 -39 -3 0 -10 -4 -17 -10 -7 -5 -55 -41 -107 -79 -113 -83 -91
-66 -220 -176 -232 -198 -497 -484 -742 -800 -215 -278 -480 -671 -616 -915
-14 -25 -33 -57 -43 -72 -11 -14 -19 -29 -19 -32 0 -2 -15 -31 -34 -63 -133
-227 -377 -728 -468 -957 -11 -28 -26 -64 -33 -81 -16 -33 -102 -269 -139
-379 -52 -153 -124 -401 -142 -486 -3 -14 -14 -63 -24 -110 -10 -47 -21 -98
-24 -115 -17 -92 -36 -206 -41 -245 -3 -25 -8 -59 -10 -77 -28 -222 -28 -694
1 -893 84 -576 273 -1025 635 -1505 203 -270 451 -535 699 -745 14 -12 34 -29
45 -38 336 -285 709 -524 1060 -682 28 -12 64 -28 80 -36 111 -49 315 -116
488 -160 45 -11 152 -32 201 -40 21 -3 48 -8 60 -10 96 -19 517 -26 651 -11
92 11 267 40 303 51 9 3 28 7 42 10 82 14 309 85 440 138 346 139 712 354
1045 613 43 33 83 65 89 70 6 6 38 33 71 60 220 183 440 403 615 620 36 44 67
82 70 85 35 35 221 307 289 423 157 269 310 660 347 887 3 19 8 38 9 41 2 3 7
28 11 55 3 27 8 51 9 54 2 3 7 33 10 65 4 33 9 69 11 80 27 131 26 661 -1 875
-3 19 -7 53 -10 75 -2 22 -16 103 -30 180 -127 698 -427 1455 -893 2260 -70
122 -227 378 -245 400 -4 6 -44 64 -89 130 -95 142 -141 208 -148 215 -3 3
-39 50 -79 105 -564 759 -1162 1275 -1688 1453 -169 58 -309 81 -498 81 -73 0
-135 -2 -136 -4z"/>
</g>
</svg>
